<svg xmlns:xlink="http://www.w3.org/1999/xlink" xmlns="http://www.w3.org/2000/svg" aria-hidden="true" focusable="false" viewBox="0 0 16 16" class="css-19qqulo" width="20" height="20"><path d="M8 1C5.71875 1 3.69408 2.10417 2.41504 3.8H2.4V3.81914C1.52497 4.98768 1 6.43227 1 8C1 11.8577 4.1423 15 8 15C11.8577 15 15 11.8577 15 8C15 4.1423 11.8577 1 8 1ZM10.1 2.80879C12.1546 3.63715 13.6 5.64285 13.6 8C13.6 9.42342 13.0696 10.7161 12.2 11.7023V10.8H10.1V8H5.9V6.6H7.3V4.5H10.1V2.80879ZM2.54492 6.74492L3.8 8L5.9 10.1V12.2H7.3V13.5521C4.53204 13.2088 2.4 10.8635 2.4 8C2.4 7.56753 2.45287 7.14882 2.54492 6.74492Z" fill-opacity="0.88" fill="#FFFFFF"></path></svg>