<svg xmlns:xlink="http://www.w3.org/1999/xlink" xmlns="http://www.w3.org/2000/svg" aria-hidden="true" focusable="false" viewBox="0 0 16 16" class="css-19qqulo" width="32"  height="32" ><path fill-rule="evenodd" clip-rule="evenodd" d="M2.09718 8C2.09718 4.73996 4.73996 2.09718 8 2.09718C11.26 2.09718 13.9028 4.73996 13.9028 8C13.9028 11.26 11.26 13.9028 8 13.9028C4.73996 13.9028 2.09718 11.26 2.09718 8ZM8 1C4.13401 1 1 4.13401 1 8C1 11.866 4.13401 15 8 15C11.866 15 15 11.866 15 8C15 4.13401 11.866 1 8 1ZM9.18088 10.2183C9.19339 10.2629 9.2042 10.3014 9.22884 10.326H10.5893V10.2382C10.5455 10.1505 10.5016 9.97491 10.4577 9.79936C10.4138 9.62381 10.4138 9.40438 10.4138 9.14106V6.9467C10.4138 6.63949 10.326 6.37616 10.2382 6.15673C10.1505 5.93729 9.97492 5.71786 9.79937 5.5862C9.57994 5.41065 9.3605 5.32287 9.09718 5.2351C8.83386 5.14732 8.57053 5.10344 8.26332 5.10344C7.91223 5.10344 7.60502 5.14732 7.34169 5.2351C7.07837 5.32287 6.85893 5.45453 6.68339 5.5862C6.46395 5.76174 6.33229 5.93729 6.24451 6.11284C6.15674 6.28839 6.11285 6.50783 6.11285 6.72726H7.42947C7.42947 6.55171 7.47335 6.42005 7.60502 6.28839C7.73668 6.15673 7.91223 6.11284 8.17555 6.11284C8.48276 6.11284 8.70219 6.20062 8.87774 6.33228C9.0094 6.46394 9.09718 6.63949 9.09718 6.90281V7.21002H8.3511C7.56113 7.21002 6.94671 7.34168 6.55172 7.64889C6.15674 7.91221 5.9373 8.35109 5.9373 8.87773C5.9373 9.09717 5.98119 9.3166 6.06897 9.49215C6.15674 9.6677 6.24451 9.84325 6.42006 9.97491C6.59561 10.1066 6.77116 10.1943 6.9906 10.2821C7.21003 10.3699 7.42947 10.4138 7.69279 10.4138C7.82445 10.4138 8 10.4138 8.13166 10.3699C8.24869 10.3406 8.32672 10.3114 8.40474 10.2821C8.44375 10.2675 8.48276 10.2529 8.52665 10.2382C8.54737 10.2279 8.57053 10.2175 8.59499 10.2066C8.67414 10.1712 8.7668 10.1297 8.83386 10.0627C8.87774 10.0188 8.92163 9.98588 8.96552 9.95297C9.0094 9.92005 9.05329 9.88714 9.09718 9.84325C9.09718 9.88714 9.10815 9.93102 9.11912 9.97491C9.13009 10.0188 9.14107 10.0627 9.14107 10.1066C9.16031 10.1451 9.17111 10.1835 9.18088 10.2183ZM8.30721 9.36049C8.21944 9.40438 8.08777 9.40438 7.95611 9.40438C7.73668 9.40438 7.51724 9.36049 7.38558 9.22883C7.25392 9.09717 7.21003 8.96551 7.21003 8.78996C7.21003 8.70218 7.21003 8.57052 7.25392 8.48275C7.28647 8.3851 7.34316 8.33573 7.40608 8.28094C7.428 8.26185 7.45068 8.2421 7.47335 8.21942C7.56113 8.13165 7.69279 8.08776 7.82445 8.04388C7.95611 7.99999 8.13166 7.99999 8.3511 7.99999H9.00941V8.87773L8.83386 9.05328C8.78997 9.14105 8.70219 9.18494 8.61442 9.22883C8.52665 9.27272 8.43887 9.3166 8.30721 9.36049Z" fill-opacity="0.88" fill="#FFFFFF"></path></svg>