<svg xmlns:xlink="http://www.w3.org/1999/xlink" xmlns="http://www.w3.org/2000/svg" aria-hidden="true" focusable="false" viewBox="0 0 16 16" class="css-19qqulo" width="32"  height="32" ><path fill-rule="evenodd" clip-rule="evenodd" d="M6.23943 3.28344C7.06026 2.46211 8.1737 2.00045 9.33488 2C10.4961 2.0004 11.6096 2.46203 12.4305 3.28336C13.2513 4.10469 13.7124 5.21845 13.7121 6.37966V6.3888L13.7118 6.39595C13.7086 6.45095 13.6846 6.50266 13.6445 6.54046C13.6044 6.57827 13.5514 6.59927 13.4963 6.59917H5.17337C5.11828 6.59927 5.06523 6.57827 5.02515 6.54047C4.98506 6.50267 4.96098 6.45095 4.95786 6.39595V6.3888V6.37966C4.95761 5.21848 5.4186 4.10476 6.23943 3.28344ZM2.0149 11.4175C2.0442 11.3738 2.05986 11.3223 2.0599 11.2696C2.05992 11.2346 2.05304 11.2 2.03966 11.1676C2.02627 11.1353 2.00665 11.1059 1.98191 11.0811C1.95717 11.0564 1.92779 11.0367 1.89545 11.0233C1.86312 11.0099 1.82846 11.003 1.79346 11.003C1.74079 11.0031 1.6893 11.0187 1.64551 11.048C1.60173 11.0772 1.5676 11.1188 1.54744 11.1675C1.52728 11.2161 1.522 11.2697 1.53227 11.3213C1.54254 11.373 1.5679 11.4205 1.60513 11.4577C1.64236 11.495 1.68981 11.5203 1.74146 11.5306C1.79312 11.5409 1.84666 11.5357 1.89533 11.5156C1.944 11.4954 1.98561 11.4613 2.0149 11.4175ZM13.2068 9.795H4.27626C4.23083 9.79506 4.18619 9.80691 4.1467 9.82938C4.10722 9.85185 4.07423 9.88419 4.05098 9.92322C4.02772 9.96225 4.01499 10.0066 4.01402 10.0521C4.01306 10.0975 4.02389 10.1424 4.04547 10.1824L4.0499 10.1907C4.07239 10.2323 4.10572 10.267 4.14637 10.2912C4.18702 10.3154 4.23346 10.3282 4.28076 10.3281H13.2025C13.2498 10.3281 13.2963 10.3154 13.3369 10.2912C13.3775 10.267 13.4109 10.2323 13.4334 10.1907L13.4378 10.1824C13.4594 10.1424 13.4702 10.0975 13.4692 10.052C13.4682 10.0066 13.4555 9.96219 13.4322 9.92316C13.4089 9.88413 13.3759 9.8518 13.3364 9.82934C13.2969 9.80688 13.2522 9.79504 13.2068 9.795ZM4.27605 7.37877H14.3934C14.4292 7.37879 14.4645 7.3861 14.4974 7.40026C14.5302 7.41442 14.5598 7.43513 14.5844 7.46112C14.6089 7.4871 14.6279 7.51783 14.6402 7.55141C14.6525 7.58499 14.6578 7.62072 14.6558 7.65642C14.6555 7.65821 14.6554 7.66001 14.6554 7.66181L14.6554 7.66476V7.66478C14.6516 7.73165 14.6223 7.79453 14.5736 7.84049C14.5249 7.88644 14.4604 7.91198 14.3934 7.91186H4.27655C4.20957 7.912 4.14508 7.88646 4.09636 7.8405C4.04763 7.79454 4.01837 7.73165 4.01461 7.66478C4.01418 7.662 4.01418 7.65922 4.01418 7.65645V7.65642C4.01218 7.62076 4.01747 7.58507 4.02972 7.55153C4.04196 7.51798 4.06092 7.48728 4.08543 7.46129C4.10993 7.43531 4.13947 7.4146 4.17224 7.40041C4.20502 7.38622 4.24034 7.37886 4.27605 7.37877ZM10.5841 13.4193H6.0244C5.96525 13.4193 5.90784 13.4393 5.86148 13.476C5.81512 13.5128 5.78252 13.5641 5.76898 13.6217C5.75543 13.6793 5.76173 13.7397 5.78686 13.7933C5.81198 13.8468 5.85446 13.8903 5.9074 13.9167L5.92411 13.9251C5.96044 13.9431 6.00048 13.9525 6.04105 13.9524H10.5672C10.6078 13.9525 10.6479 13.9431 10.6842 13.9251L10.7009 13.9167C10.7538 13.8903 10.7962 13.8469 10.8214 13.7933C10.8465 13.7398 10.8528 13.6794 10.8393 13.6218C10.8258 13.5642 10.7932 13.5129 10.7469 13.4761C10.7006 13.4394 10.6432 13.4194 10.5841 13.4193ZM8.81022 12.2112H13.3697C13.4288 12.2113 13.4861 12.2314 13.5324 12.2682C13.5787 12.3049 13.6112 12.3562 13.6247 12.4138C13.6382 12.4713 13.6319 12.5317 13.6068 12.5852C13.5817 12.6387 13.5393 12.6822 13.4865 12.7086L13.4698 12.717C13.4335 12.735 13.3934 12.7443 13.3528 12.7442H8.82693C8.78635 12.7443 8.7463 12.735 8.70993 12.717L8.69328 12.7086C8.64041 12.6822 8.59801 12.6387 8.57293 12.5851C8.54785 12.5316 8.54156 12.4712 8.55509 12.4137C8.56861 12.3561 8.60116 12.3048 8.64746 12.2681C8.69376 12.2313 8.75111 12.2113 8.81022 12.2112ZM7.15251 11.4522L7.1448 11.4439C7.11006 11.4065 7.087 11.3597 7.07844 11.3094C7.06989 11.259 7.07622 11.2073 7.09665 11.1604C7.11708 11.1136 7.15072 11.0738 7.19346 11.0458C7.23619 11.0179 7.28616 11.003 7.33723 11.003H14.7375C14.7886 11.003 14.8386 11.0179 14.8813 11.0458C14.924 11.0738 14.9577 11.1136 14.9781 11.1604C14.9985 11.2073 15.0048 11.259 14.9963 11.3094C14.9877 11.3597 14.9647 11.4065 14.9299 11.4439L14.9222 11.4522C14.8976 11.4786 14.8678 11.4996 14.8347 11.514C14.8016 11.5285 14.766 11.536 14.7299 11.5361H7.34488C7.30879 11.536 7.2731 11.5285 7.24001 11.514C7.20693 11.4996 7.17715 11.4786 7.15251 11.4522ZM6.27877 11.003H2.74492C2.68584 11.0032 2.62855 11.0233 2.58231 11.0601C2.53607 11.0969 2.50358 11.1482 2.4901 11.2057C2.47662 11.2632 2.48294 11.3236 2.50802 11.3771C2.53311 11.4306 2.5755 11.4741 2.62835 11.5005L2.64499 11.5089C2.68134 11.5269 2.7214 11.5363 2.76199 11.5361H6.26212C6.30269 11.5362 6.34272 11.5269 6.37905 11.5089L6.3957 11.5005C6.44857 11.4741 6.49098 11.4306 6.51606 11.377C6.54114 11.3235 6.54742 11.2631 6.53389 11.2055C6.52037 11.148 6.48782 11.0967 6.44152 11.06C6.39522 11.0232 6.33788 11.0032 6.27877 11.003ZM3.59102 7.64528C3.59099 7.69795 3.57535 7.74943 3.54607 7.79322C3.51679 7.837 3.47518 7.87112 3.42651 7.89126C3.37784 7.9114 3.32429 7.91666 3.27263 7.90637C3.22097 7.89608 3.17352 7.87071 3.13628 7.83346C3.09904 7.79621 3.07368 7.74875 3.06341 7.69709C3.05313 7.64543 3.0584 7.59188 3.07856 7.54322C3.09871 7.49455 3.13284 7.45295 3.17663 7.42368C3.22042 7.39441 3.27191 7.37878 3.32459 7.37877C3.35958 7.37877 3.39423 7.38566 3.42656 7.39905C3.45889 7.41245 3.48827 7.43208 3.51301 7.45683C3.53775 7.48158 3.55738 7.51096 3.57076 7.54329C3.58415 7.57563 3.59103 7.61028 3.59102 7.64528ZM9.87283 8.91711L9.87061 8.92539C9.85558 8.98115 9.82262 9.0304 9.77682 9.06557C9.73102 9.10073 9.67492 9.11985 9.61718 9.11997H2.22005C2.16231 9.11986 2.10622 9.10074 2.06043 9.06558C2.01463 9.03041 1.98169 8.98115 1.96668 8.92539L1.9644 8.91711C1.95397 8.87824 1.95263 8.83748 1.96049 8.79801C1.96834 8.75854 1.98517 8.7214 2.00968 8.68948C2.03419 8.65756 2.06573 8.6317 2.10183 8.61392C2.13794 8.59615 2.17766 8.58692 2.21791 8.58696H9.61932C9.65956 8.58693 9.69927 8.59617 9.73537 8.61396C9.77147 8.63174 9.80299 8.65759 9.8275 8.68951C9.85201 8.72143 9.86885 8.75855 9.87671 8.79802C9.88457 8.83749 9.88324 8.87824 9.87283 8.91711ZM1.53273 8.85339C1.5327 8.90607 1.51706 8.95756 1.48777 9.00134C1.45849 9.04513 1.41688 9.07924 1.3682 9.09938C1.31953 9.11952 1.26597 9.12478 1.21431 9.11448C1.16265 9.10419 1.1152 9.07881 1.07796 9.04155C1.04073 9.00429 1.01537 8.95683 1.00511 8.90516C0.994842 8.8535 1.00012 8.79995 1.02029 8.75129C1.04045 8.70262 1.07459 8.66103 1.11839 8.63177C1.16219 8.6025 1.21369 8.58689 1.26637 8.58689C1.33702 8.58692 1.40477 8.61502 1.45472 8.66499C1.50467 8.71497 1.53273 8.78273 1.53273 8.85339ZM3.54607 10.2094C3.57535 10.1657 3.59099 10.1142 3.59102 10.0615C3.59102 9.99084 3.56296 9.92306 3.51299 9.87308C3.46303 9.8231 3.39526 9.79502 3.32459 9.795C3.27191 9.79501 3.22042 9.81064 3.17663 9.83991C3.13284 9.86918 3.09871 9.91079 3.07856 9.95945C3.0584 10.0081 3.05313 10.0617 3.06341 10.1133C3.07368 10.165 3.09904 10.2124 3.13628 10.2497C3.17352 10.2869 3.22097 10.3123 3.27263 10.3226C3.32429 10.3329 3.37784 10.3276 3.42651 10.3075C3.47518 10.2873 3.51679 10.2532 3.54607 10.2094ZM8.12519 12.4777C8.12516 12.5304 8.10952 12.5819 8.08024 12.6257C8.05095 12.6695 8.00935 12.7036 7.96068 12.7237C7.91201 12.7439 7.85846 12.7491 7.8068 12.7388C7.75514 12.7285 7.70769 12.7032 7.67045 12.6659C7.63321 12.6287 7.60785 12.5812 7.59757 12.5296C7.5873 12.4779 7.59257 12.4243 7.61272 12.3757C7.63288 12.327 7.66701 12.2854 7.7108 12.2561C7.75459 12.2269 7.80608 12.2112 7.85875 12.2112C7.89375 12.2112 7.9284 12.2181 7.96073 12.2315C7.99306 12.2449 8.02243 12.2645 8.04718 12.2893C8.07192 12.314 8.09154 12.3434 8.10493 12.3758C8.11832 12.4081 8.1252 12.4427 8.12519 12.4777ZM5.29427 13.8338C5.32355 13.79 5.3392 13.7385 5.33923 13.6859C5.33923 13.6509 5.33236 13.6162 5.31897 13.5839C5.30559 13.5516 5.28598 13.5222 5.26124 13.4974C5.23651 13.4727 5.20714 13.4531 5.17482 13.4397C5.14249 13.4263 5.10785 13.4194 5.07286 13.4193C5.02018 13.4193 4.96869 13.435 4.92489 13.4642C4.88109 13.4935 4.84695 13.5351 4.82678 13.5837C4.80662 13.6324 4.80133 13.686 4.8116 13.7376C4.82187 13.7893 4.84722 13.8368 4.88446 13.874C4.9217 13.9113 4.96915 13.9367 5.02081 13.9469C5.07247 13.9572 5.12602 13.952 5.17469 13.9318C5.22337 13.9117 5.26498 13.8776 5.29427 13.8338Z" fill-opacity="0.88" fill="#FFFFFF"></path></svg>