<svg xmlns:xlink="http://www.w3.org/1999/xlink" xmlns="http://www.w3.org/2000/svg" aria-hidden="true" focusable="false" viewBox="0 0 16 16" class="css-19qqulo" width="32"  height="32" ><path fill-rule="evenodd" clip-rule="evenodd" d="M1 8C1 4.13404 4.13404 1 8 1C11.866 1 15 4.13404 15 8C15 11.866 11.866 15 8 15C4.13404 15 1 11.866 1 8ZM7.80372 8.43288C7.87727 8.13869 7.94036 7.83573 7.993 7.524C8.00868 7.43192 8.01739 7.33879 8.01904 7.2454C8.01904 7.00031 7.95772 6.79021 7.83508 6.61512C7.71051 6.43482 7.53505 6.29572 7.33108 6.21556C7.10108 6.12144 6.85436 6.07505 6.60588 6.0792C5.61487 6.0792 5.00017 6.5608 4.7618 7.524C4.6778 7.87755 4.61303 8.18051 4.56748 8.43288C4.55152 8.52662 4.54272 8.62144 4.54116 8.71652C4.54116 9.08444 4.67248 9.36817 4.93512 9.56772C5.20149 9.76391 5.543 9.862 5.95964 9.862C6.46401 9.862 6.86684 9.74459 7.16812 9.50976C7.4694 9.27176 7.68127 8.9128 7.80372 8.43288ZM11.1654 8.23716C11.4316 8.04433 11.6085 7.7466 11.696 7.34396C11.7168 7.25442 11.7276 7.16287 11.7285 7.07096C11.7285 6.76557 11.6094 6.53224 11.3712 6.37096C11.1366 6.20987 10.8248 6.12932 10.436 6.12932H9.03796C9.00148 6.12984 8.96628 6.14289 8.93828 6.16628C8.9076 6.18916 8.88685 6.22293 8.88032 6.26064L8.1554 9.67664C8.14801 9.70902 8.15364 9.74301 8.17108 9.77128C8.18229 9.78367 8.19613 9.79339 8.21158 9.79974C8.22704 9.80609 8.24372 9.8089 8.2604 9.80796H8.97496C9.01147 9.80738 9.0467 9.79445 9.07492 9.77128C9.10545 9.74819 9.12607 9.71436 9.1326 9.67664L9.37424 8.52612H10.0835C10.5425 8.52612 10.9031 8.4298 11.1654 8.23716ZM6.53759 6.83435C6.35427 6.82999 6.17545 6.89148 6.03359 7.00767C5.89695 7.12322 5.79885 7.30009 5.73931 7.53827C5.6764 7.77291 5.6134 8.0601 5.55031 8.39983C5.53605 8.47251 5.52902 8.54642 5.52931 8.62047C5.52931 8.94266 5.69731 9.10385 6.03331 9.10403C6.21532 9.10897 6.39286 9.04723 6.53255 8.93043C6.67255 8.81507 6.77232 8.63774 6.83187 8.39843C6.91251 8.06915 6.97383 7.78197 7.01583 7.53687C7.02991 7.46238 7.03694 7.38673 7.03683 7.31091C7.03683 6.99321 6.87041 6.83435 6.53759 6.83435ZM10.6511 6.94469C10.5915 6.88869 10.49 6.86069 10.3464 6.86069H9.71588L9.51624 7.80121H10.1205C10.258 7.80419 10.3928 7.76178 10.5038 7.68053C10.6182 7.59656 10.6969 7.47278 10.7244 7.33361C10.7343 7.28163 10.7397 7.22888 10.7404 7.17597C10.7404 7.07405 10.7104 6.99705 10.6511 6.94469Z" fill-opacity="0.88" fill="#FFFFFF"></path></svg>