<svg xmlns:xlink="http://www.w3.org/1999/xlink" xmlns="http://www.w3.org/2000/svg" aria-hidden="true" focusable="false" viewBox="0 0 16 16" class="css-19qqulo" width="32"  height="32" ><path d="M2.18194 6.72538C2.18934 7.02944 2.22057 7.33245 2.27535 7.63162C2.28221 7.66974 2.29479 7.65945 2.31347 7.64496C2.40002 7.58511 2.48618 7.52525 2.57349 7.46692C2.80681 7.31137 3.02909 7.13904 3.27576 7.00446C3.84764 6.69412 4.46031 6.54924 5.10577 6.51913C5.48927 6.50097 5.87353 6.53107 6.24953 6.60872C6.75495 6.70674 7.23499 6.90706 7.66016 7.19737C8.02578 7.4509 8.39369 7.70101 8.76046 7.95301C9.36817 8.36972 10.0506 8.5409 10.7773 8.56302C10.983 8.56843 11.1889 8.55798 11.393 8.53175C11.7379 8.48955 12.0757 8.402 12.3976 8.27136C12.714 8.14326 12.9893 7.94653 13.2676 7.75476C13.2743 7.74976 13.2798 7.7434 13.2838 7.7361C13.2878 7.72881 13.2902 7.72074 13.2909 7.71244C13.3494 7.41958 13.3845 7.12255 13.3961 6.82413C13.4172 6.33497 13.3713 5.84522 13.2596 5.36851C12.9546 4.08026 12.2878 3.01733 11.2474 2.1984C10.282 1.43856 9.1764 1.05121 7.94991 1.00508C7.63771 0.994493 7.32517 1.01108 7.01584 1.05464C6.41898 1.13608 5.83946 1.31458 5.30021 1.58306C4.72128 1.86982 4.19652 2.25488 3.74927 2.72109C3.45029 3.03032 3.18838 3.37335 2.96885 3.74323C2.44691 4.62468 2.18766 5.57972 2.18194 6.72538ZM10.942 9.97708C11.0625 9.97708 11.1829 9.97517 11.303 9.96488C11.4231 9.95459 11.5421 9.94086 11.6606 9.9218C12.0966 9.85629 12.5184 9.7176 12.9081 9.51157C13.1776 9.36708 13.4197 9.18103 13.6706 9.01023C13.7041 8.98579 13.7309 8.95343 13.7488 8.91606C13.7798 8.86365 13.795 8.80343 13.7927 8.74259C13.7904 8.68174 13.7707 8.62285 13.7358 8.57293C13.7038 8.52236 13.6583 8.48181 13.6043 8.45592C13.5504 8.43003 13.4903 8.41985 13.4308 8.42653C13.3416 8.43149 13.2745 8.48067 13.2055 8.52832C12.9523 8.70332 12.7007 8.87984 12.4167 9.00451C12.0023 9.18821 11.5575 9.29331 11.1048 9.31446C10.788 9.32945 10.4707 9.30214 10.1612 9.23326C9.76666 9.15022 9.39025 8.99707 9.04982 8.78109C8.72271 8.56912 8.4017 8.34685 8.08411 8.12038C7.69411 7.83425 7.2591 7.6152 6.797 7.47226C6.33485 7.33653 5.85546 7.26846 5.37379 7.27019C5.19544 7.27044 5.01725 7.28063 4.84003 7.30069C4.54039 7.33355 4.24442 7.39404 3.95591 7.48141C3.53139 7.61148 3.13109 7.81034 2.77098 8.07006C2.56777 8.2157 2.35884 8.35295 2.15259 8.49401C2.09417 8.53097 2.04882 8.58531 2.0229 8.64939C1.99698 8.71347 1.9918 8.78407 2.00809 8.85124C2.02039 8.90379 2.04542 8.95251 2.08098 8.9931C2.11655 9.0337 2.16155 9.06492 2.21203 9.08401C2.2625 9.10311 2.3169 9.1095 2.37043 9.10262C2.42396 9.09573 2.47497 9.07579 2.51897 9.04454C2.67147 8.94351 2.81787 8.83904 2.96809 8.73725C3.18006 8.59428 3.38518 8.44025 3.61621 8.3255C4.10765 8.08035 4.63149 7.96216 5.17706 7.93586C5.55479 7.91618 5.93347 7.94644 6.30328 8.02583C6.72232 8.11056 7.12129 8.27465 7.47868 8.50926C7.82181 8.74106 8.16494 8.97629 8.50463 9.21153C8.709 9.35978 8.92601 9.48978 9.15314 9.60002C9.71497 9.85411 10.3254 9.98277 10.942 9.97708ZM5.36731 12.3084H5.37112V13.923C5.37112 14.4766 5.37112 15.0301 5.37112 15.5834C5.37115 15.6307 5.37678 15.6778 5.38789 15.7237C5.4508 15.9826 5.73979 16.0866 5.93842 15.9193C6.04479 15.8297 6.08063 15.705 6.08063 15.5708C6.08063 13.479 6.08063 11.3871 6.08063 9.29502C6.08331 9.17927 6.07796 9.06347 6.06462 8.94846C6.05544 8.87698 6.02429 8.81011 5.97545 8.75711C5.92661 8.70411 5.86252 8.66759 5.79202 8.65261C5.72252 8.64034 5.65094 8.64884 5.58624 8.67705C5.52155 8.70526 5.46661 8.75193 5.42831 8.81121C5.37074 8.90233 5.36693 9.00184 5.36693 9.1063C5.36693 10.1738 5.36705 11.2412 5.36731 12.3084ZM10.1909 12.5909C10.1909 12.03 10.1909 11.4692 10.1909 10.9085C10.1919 10.881 10.19 10.8536 10.1852 10.8265C10.1679 10.7403 10.1184 10.664 10.0468 10.613C9.97518 10.562 9.88685 10.5402 9.79975 10.552C9.71495 10.5624 9.63696 10.6037 9.5807 10.668C9.52443 10.7323 9.49383 10.815 9.49475 10.9005C9.49475 12.0221 9.49475 13.1438 9.49475 14.2654C9.49352 14.312 9.50166 14.3584 9.51867 14.4017C9.53568 14.4451 9.56122 14.4847 9.59378 14.518C9.62635 14.5514 9.66527 14.5778 9.70824 14.5959C9.75121 14.6139 9.79737 14.6231 9.84397 14.623C9.93765 14.6212 10.0268 14.5825 10.0921 14.5154C10.1575 14.4482 10.1936 14.3579 10.1928 14.2643C10.1879 13.7065 10.1909 13.1487 10.1909 12.5909ZM4.70088 10.7438V9.14824C4.70212 9.06575 4.68602 8.98392 4.6536 8.90805C4.63131 8.85069 4.59256 8.8012 4.54223 8.7658C4.4919 8.73039 4.43223 8.71064 4.37071 8.70904C4.31728 8.70451 4.26358 8.71398 4.21491 8.7365C4.16625 8.75903 4.12429 8.79385 4.09316 8.83752C4.02342 8.93489 3.98875 9.05302 3.9948 9.17264C3.9948 10.2135 3.9948 11.2544 3.9948 12.2955C3.9948 12.3153 3.9948 12.3336 3.9948 12.3549C3.99914 12.4453 4.02931 12.5325 4.08172 12.6062C4.11513 12.6569 4.1618 12.6974 4.21667 12.7233C4.27153 12.7493 4.33247 12.7597 4.39283 12.7534C4.53008 12.7404 4.61433 12.655 4.66351 12.5311C4.68989 12.4628 4.70283 12.39 4.70164 12.3168C4.70113 11.7927 4.70037 11.2684 4.70088 10.7438ZM11.5604 12.464V11.0366C11.5613 10.9904 11.5531 10.9444 11.5362 10.9014C11.5193 10.8583 11.494 10.8191 11.4618 10.7859C11.4296 10.7527 11.3911 10.7262 11.3486 10.708C11.3061 10.6898 11.2604 10.6802 11.2142 10.6797C11.1675 10.6789 11.1211 10.6875 11.0778 10.705C11.0345 10.7225 10.9952 10.7485 10.9622 10.7815C10.9292 10.8145 10.9031 10.8539 10.8856 10.8972C10.8682 10.9405 10.8596 10.9868 10.8604 11.0335C10.8604 11.9864 10.8604 12.9395 10.8604 13.8929C10.8587 13.9426 10.8681 13.9921 10.8878 14.0377C10.9076 14.0834 10.9373 14.124 10.9748 14.1567C11.0256 14.2058 11.0908 14.2375 11.1608 14.2473C11.2308 14.257 11.3021 14.2443 11.3644 14.2109C11.4998 14.1461 11.5619 14.0306 11.5619 13.8819C11.5616 13.4091 11.5606 12.9365 11.5604 12.464ZM7.45085 10.7484C7.45085 10.3946 7.45085 10.0411 7.45085 9.68733C7.45085 9.58058 7.44247 9.47497 7.38566 9.37852C7.25946 9.16425 6.96361 9.1429 6.82331 9.34039C6.75774 9.43303 6.74401 9.54093 6.74401 9.64958C6.74249 10.3816 6.74249 11.1135 6.74401 11.8452C6.74246 11.9201 6.75433 11.9946 6.77908 12.0652C6.80028 12.1295 6.8411 12.1856 6.8958 12.2255C6.95051 12.2655 7.01636 12.2873 7.08409 12.2878C7.15309 12.291 7.22141 12.273 7.27992 12.2362C7.33844 12.1995 7.38436 12.1458 7.41158 12.0824C7.44463 11.9952 7.45867 11.902 7.45276 11.809C7.45314 11.4563 7.45085 11.1022 7.45085 10.7484ZM3.32456 10.987C3.32456 10.6488 3.32456 10.3103 3.32456 9.97174C3.32456 9.8608 3.32722 9.74947 3.27842 9.64463C3.16977 9.40901 2.86629 9.35945 2.71036 9.55351C2.64714 9.6388 2.61535 9.74332 2.62038 9.84936C2.61771 10.2363 2.62267 10.6237 2.61657 11.0107C2.61047 11.3645 2.61466 11.7183 2.61657 12.0721C2.61595 12.1364 2.6239 12.2005 2.64021 12.2627C2.65353 12.3173 2.68019 12.3677 2.71781 12.4094C2.75542 12.4512 2.80282 12.4829 2.85573 12.5018C2.90864 12.5207 2.96541 12.5262 3.02096 12.5177C3.0765 12.5092 3.12908 12.4871 3.17396 12.4533C3.28605 12.3694 3.32151 12.2467 3.32227 12.1144C3.32684 11.7377 3.32456 11.3614 3.32456 10.987ZM12.9443 11.3199C12.9443 11.1142 12.9443 10.9085 12.9443 10.7026C12.9453 10.6798 12.9441 10.6569 12.9405 10.6344C12.9239 10.5506 12.8773 10.4758 12.8095 10.4238C12.7418 10.3718 12.6574 10.3462 12.5722 10.3519C12.4838 10.3583 12.4011 10.3982 12.341 10.4633C12.2808 10.5284 12.2476 10.6139 12.2482 10.7026C12.2482 11.1138 12.2482 11.5253 12.2482 11.9371C12.2476 12.0296 12.2838 12.1186 12.3488 12.1845C12.4138 12.2504 12.5022 12.2878 12.5947 12.2886C12.6409 12.2889 12.6867 12.28 12.7294 12.2624C12.7721 12.2449 12.8108 12.219 12.8434 12.1862C12.876 12.1535 12.9017 12.1146 12.9191 12.0719C12.9365 12.0291 12.9452 11.9833 12.9447 11.9371L12.9443 11.3199ZM8.81574 10.6717C8.81574 10.5695 8.81574 10.4674 8.81574 10.3667C8.81428 10.2765 8.77792 10.1904 8.71429 10.1264C8.65067 10.0624 8.56473 10.0256 8.47452 10.0236C8.42713 10.0223 8.37998 10.0307 8.33593 10.0483C8.29189 10.0658 8.25187 10.0921 8.21832 10.1256C8.18476 10.1591 8.15836 10.1991 8.14073 10.2431C8.1231 10.2871 8.1146 10.3342 8.11576 10.3816C8.11576 10.5753 8.11576 10.7689 8.11576 10.9626C8.11599 10.9945 8.12008 11.0263 8.12796 11.0572C8.14798 11.1411 8.19848 11.2145 8.26964 11.2633C8.3408 11.3121 8.42755 11.3326 8.51302 11.321C8.59759 11.3092 8.67497 11.267 8.73074 11.2023C8.78651 11.1376 8.81685 11.0549 8.81612 10.9695L8.81574 10.6717Z" fill-opacity="0.88" fill="#FFFFFF"></path></svg>