<svg xmlns:xlink="http://www.w3.org/1999/xlink" xmlns="http://www.w3.org/2000/svg" aria-hidden="true" focusable="false" viewBox="0 0 16 16" class="css-19qqulo" width="32"  height="32" ><path fill-rule="evenodd" clip-rule="evenodd" d="M11.5652 2.64635L9.07421 6.34483C9.00084 6.45498 9.02005 6.60237 9.11919 6.69004C9.21834 6.7777 9.36698 6.77872 9.46731 6.69242L11.9194 4.56552C11.9488 4.53925 11.9909 4.53282 12.0268 4.54914C12.0627 4.56546 12.0855 4.60143 12.085 4.64083V11.2996C12.0849 11.3413 12.0588 11.3786 12.0196 11.3929C11.9803 11.4072 11.9363 11.3953 11.9095 11.3633L4.49766 2.49076C4.25636 2.20583 3.90193 2.04138 3.52855 2.04138H3.26952C2.56838 2.04138 2 2.60976 2 3.3109V12.6891C2 13.3902 2.56838 13.9586 3.26952 13.9586C3.71095 13.9586 4.12079 13.7297 4.352 13.3537L6.84303 9.65518C6.9164 9.54503 6.89719 9.39763 6.79805 9.30997C6.6989 9.2223 6.55026 9.22129 6.44993 9.30759L3.99779 11.4345C3.96843 11.4608 3.92631 11.4672 3.89045 11.4509C3.85459 11.4345 3.83176 11.3986 3.83228 11.3592V4.69876C3.83229 4.657 3.85843 4.61971 3.89768 4.60545C3.93693 4.5912 3.98091 4.60302 4.00772 4.63504L11.4188 13.5092C11.6601 13.7942 12.0145 13.9586 12.3879 13.9586H12.6469C12.9837 13.9588 13.3069 13.8252 13.5451 13.5871C13.7834 13.349 13.9172 13.0259 13.9172 12.6891V3.3109C13.9172 2.60976 13.3489 2.04138 12.6477 2.04138C12.2063 2.04138 11.7965 2.27031 11.5652 2.64635Z" fill-opacity="0.88" fill="#FFFFFF"></path></svg>