<svg xmlns:xlink="http://www.w3.org/1999/xlink" xmlns="http://www.w3.org/2000/svg" aria-hidden="true" focusable="false" viewBox="0 0 16 16" class="css-19qqulo" width="32"  height="32" ><path d="M4.51363 14.4256H2.1596C1.66495 14.4256 1.42061 14.4256 1.27161 14.3302C1.11072 14.226 1.01237 14.0531 1.00046 13.8624C0.991517 13.6866 1.11369 13.4721 1.35803 13.043L7.17042 2.79783C7.41775 2.36279 7.5429 2.14526 7.70084 2.06481C7.87067 1.9784 8.0733 1.9784 8.24315 2.06481C8.40109 2.14526 8.52624 2.36279 8.77355 2.79783L9.96845 4.8837C10.2396 5.35748 10.3767 5.59587 10.4363 5.84617C10.5018 6.11732 10.5018 6.40339 10.4363 6.67454C10.3767 6.92484 10.2426 7.16323 9.97143 7.63701L6.91831 13.034C6.64418 13.5138 6.50712 13.7552 6.31641 13.9368C6.11079 14.1335 5.86348 14.2766 5.59231 14.357C5.345 14.4256 5.06788 14.4256 4.51363 14.4256Z" fill-opacity="0.88" fill="#FFFFFF"></path><path d="M13.8314 14.4256H10.4583C9.96066 14.4256 9.71036 14.4256 9.56435 14.3304C9.40344 14.226 9.30511 14.0501 9.2932 13.8595C9.28426 13.6837 9.40941 13.4692 9.65971 13.0371L11.3432 10.1467C11.5906 9.72059 11.7158 9.50903 11.8707 9.42857C12.0406 9.34215 12.2402 9.34215 12.4101 9.42857C12.5681 9.50903 12.6901 9.7206 12.9405 10.1437L14.6301 13.0341C14.8802 13.4662 15.0085 13.6807 14.9996 13.8565C14.9906 14.0472 14.8892 14.2231 14.7284 14.3273C14.5794 14.4256 14.329 14.4256 13.8314 14.4256Z" fill-opacity="0.88" fill="#FFFFFF"></path></svg>