<svg xmlns:xlink="http://www.w3.org/1999/xlink" xmlns="http://www.w3.org/2000/svg" aria-hidden="true" focusable="false" viewBox="0 0 16 16" class="css-19qqulo" width="32"  height="32" ><path fill-rule="evenodd" clip-rule="evenodd" d="M9.38097 12.6321V14.2143L8.01698 15L6.65299 14.2143V12.6321L8.01698 13.4178L9.38097 12.6321ZM1.96086 7.2198L3.32485 8.00546V10.7116L5.68183 12.0756V13.6578L1.96086 11.5082V7.2198ZM14.084 7.20889V11.4973L10.363 13.6469V12.0647L12.7091 10.7116V8.00546L14.084 7.20889ZM10.374 5.07015L11.7379 5.85581V7.43804L9.38097 8.79111V11.4973L8.01698 12.2829L6.65299 11.4973V8.79111L4.30693 7.43804V5.85581L5.67092 5.07015L8.01698 6.42323L10.374 5.07015ZM11.727 8.56196V10.1551L10.363 10.9408V9.34762L11.727 8.56196ZM4.30693 8.57288L5.67092 9.35853V10.9408L4.30693 10.1551V8.57288ZM12.7091 3.70616L14.0731 4.50273V6.08496L12.7091 6.87062V5.28839L11.3451 4.49182L12.7091 3.70616ZM3.32485 3.70616L4.67793 4.50273L3.31394 5.28839V6.87062L1.94995 6.08496H1.96086V4.49182L3.32485 3.70616ZM8.01698 3.70616L9.38097 4.50273L8.01698 5.28839L6.65299 4.50273L8.01698 3.70616ZM8.01698 1L11.7379 3.14965L10.374 3.93531L8.01698 2.58223L5.67092 3.93531L4.30693 3.14965L8.01698 1Z" fill-opacity="0.88" fill="#FFFFFF"></path></svg>