<svg xmlns:xlink="http://www.w3.org/1999/xlink" xmlns="http://www.w3.org/2000/svg" aria-hidden="true" focusable="false" viewBox="0 0 16 16" class="css-19qqulo" width="32"  height="32" ><path fill-rule="evenodd" clip-rule="evenodd" d="M7.39153 1.13411C7.73004 0.955297 8.2451 0.955297 8.5836 1.13411L12.0377 2.95872C12.2416 3.06642 12.3535 3.22688 12.3736 3.39254L12.3769 3.39254V12.564C12.3724 12.7447 12.2594 12.9242 12.0377 13.0413L8.5836 14.8659C8.2451 15.0447 7.73004 15.0447 7.39153 14.8659L3.93742 13.0413C3.71667 12.9247 3.61074 12.7439 3.60549 12.564C3.60495 12.5455 3.6049 12.5303 3.60547 12.5178L3.60549 3.4543C3.60497 3.44156 3.60497 3.42886 3.60548 3.41621L3.60549 3.39254L3.60703 3.39254C3.62237 3.22506 3.72926 3.06869 3.93742 2.95872L7.39153 1.13411ZM11.8332 8.5092L8.5836 10.2258C8.2451 10.4046 7.73004 10.4046 7.39153 10.2258L4.14915 8.51303V12.5459L7.39153 14.2496C7.58314 14.352 7.78236 14.4517 7.97638 14.4561L7.98757 14.4562C8.18119 14.4569 8.36917 14.3586 8.5598 14.2655L11.8332 12.5312V8.5092ZM3.04368 12.3646C3.04368 12.716 3.08452 12.9469 3.16559 13.1096C3.23279 13.2445 3.33362 13.3476 3.51773 13.473L3.52824 13.4801C3.56864 13.5073 3.61315 13.5359 3.66733 13.5694L3.73122 13.6086L3.92741 13.727L3.64602 14.1922L3.42643 14.0596L3.38952 14.0369C3.32603 13.9977 3.2734 13.9641 3.22432 13.931C2.69961 13.5772 2.50392 13.1914 2.50006 12.389L2.5 12.3646H3.04368ZM7.71573 6.051C7.69055 6.05964 7.66696 6.06964 7.64545 6.081L4.19134 7.90562C4.18771 7.90753 4.18425 7.90943 4.18096 7.9113L4.17804 7.913L4.18346 7.9161L4.19134 7.92038L7.64545 9.74499C7.66696 9.75636 7.69055 9.76636 7.71573 9.775V6.051ZM8.25941 6.051V9.775C8.28459 9.76636 8.30818 9.75636 8.32969 9.74499L11.7838 7.92038C11.7874 7.91846 11.7909 7.91657 11.7942 7.9147L11.7971 7.913L11.7917 7.90989L11.7838 7.90562L8.32969 6.081C8.30818 6.06964 8.28459 6.05964 8.25941 6.051ZM11.8332 4.04313L8.73462 5.67995L11.8332 7.31677V4.04313ZM4.14915 4.04696V7.31295L7.24051 5.67995L4.14915 4.04696ZM8.32969 1.61492C8.15006 1.52004 7.82508 1.52004 7.64545 1.61492L4.19134 3.43954C4.18771 3.44145 4.18425 3.44335 4.18096 3.44522L4.17804 3.44692L4.18346 3.45002L4.19134 3.4543L7.64545 5.27891C7.82508 5.3738 8.15006 5.3738 8.32969 5.27891L11.7838 3.4543C11.7874 3.45238 11.7909 3.45049 11.7942 3.44862L11.7971 3.44692L11.7917 3.44381L11.7838 3.43954L8.32969 1.61492ZM12.3436 1.81501L12.5632 1.94765L12.6001 1.97031C12.6636 2.00951 12.7162 2.04319 12.7653 2.07628C13.29 2.43008 13.4857 2.81581 13.4896 3.61823L13.4896 3.64267H12.946C12.946 3.29127 12.9051 3.06032 12.824 2.89761C12.7568 2.76274 12.656 2.65968 12.4719 2.53427L12.4614 2.52715C12.421 2.49991 12.3765 2.47136 12.3223 2.43782L12.2584 2.39869L12.0622 2.28028L12.3436 1.81501Z" fill-opacity="0.88" fill="#FFFFFF"></path></svg>