<svg xmlns:xlink="http://www.w3.org/1999/xlink" xmlns="http://www.w3.org/2000/svg" aria-hidden="true" focusable="false" viewBox="0 0 16 16" class="css-19qqulo" width="32"  height="32" ><path d="M14.3342 3.45141L8.66552 0.178249C8.25367 -0.0594164 7.74633 -0.0594164 7.33448 0.178249L1.66527 3.45141C1.25364 3.68918 1 4.12843 1 4.6038V11.9184L1.01464 11.9272L2.64927 12.8706L3.17592 13.1747L4.93648 14.1914L7.33448 15.5757C7.74633 15.8133 8.25367 15.8133 8.66552 15.5757L14.3342 12.3025C14.7461 12.0649 15 11.6256 15 11.1501V4.6038C15 4.1283 14.7461 3.68898 14.3342 3.45141ZM14.0692 10.603L10.9674 5.33155L9.78569 7.342L12.6435 12.2024L12.1124 12.5095L9.40791 7.97994L8.23307 9.97723L10.3519 13.5257L8.25796 14.7347C8.09836 14.8269 7.90164 14.8269 7.74204 14.7347L5.41383 13.3905L10.6506 4.62283H8.28334L3.65328 12.3757L3.12126 12.0687L7.50092 4.62283H6.17087C5.52866 4.62295 4.93448 4.96294 4.60897 5.51653L1.9308 10.068V4.67115C1.93064 4.48678 2.02889 4.31633 2.18851 4.22406L7.74204 1.01777C7.90164 0.925511 8.09836 0.925511 8.25796 1.01777L13.811 4.22406C13.9707 4.31628 14.0692 4.48671 14.0692 4.67115V10.603Z" fill-opacity="0.88" fill="#FFFFFF"></path></svg>