<svg xmlns:xlink="http://www.w3.org/1999/xlink" xmlns="http://www.w3.org/2000/svg" aria-hidden="true" focusable="false" viewBox="0 0 16 16" class="css-19qqulo" width="32"  height="32" ><path fill-rule="evenodd" clip-rule="evenodd" d="M5.24968 1.56526C4.37916 1.93821 3.59343 2.48405 2.94012 3.16968C2.76889 3.35188 2.60227 3.54469 2.44696 3.7428L7.99914 9.29003L13.551 3.73573C13.4052 3.53477 13.244 3.34551 13.0688 3.16968C12.4155 2.48405 11.6297 1.93821 10.7592 1.56526C9.88869 1.1923 8.9515 1 8.00445 1C7.05739 1 6.12021 1.1923 5.24968 1.56526ZM12.5728 7.84046C12.664 7.61985 12.7106 7.38341 12.71 7.14472C12.7112 6.74089 12.5771 6.34829 12.329 6.02962L9.77829 8.57965C10.0962 8.82878 10.4891 8.96284 10.893 8.95996C11.1317 8.96075 11.3682 8.91435 11.5889 8.82343C11.8096 8.73251 12.0101 8.59886 12.179 8.43016C12.3479 8.26147 12.4817 8.06106 12.5728 7.84046ZM5.30742 8.95667C5.6455 8.92219 5.96716 8.79366 6.23591 8.58566L3.68482 6.03563C3.43574 6.35344 3.30168 6.74626 3.30451 7.15003C3.30496 7.48987 3.40063 7.82279 3.58068 8.11102C3.76072 8.39925 4.01793 8.63126 4.32314 8.78073C4.62834 8.9302 4.96933 8.99115 5.30742 8.95667ZM1.00001 8.00193C1.00001 11.8698 4.13518 14.9982 7.99914 14.9982C11.8631 14.9982 14.9979 11.8645 14.9997 8.00193C15.0119 6.72299 14.6648 5.46631 13.9978 4.375L12.8657 5.50532C13.2783 5.99813 13.4913 6.62758 13.4629 7.26966C13.4344 7.91173 13.1665 8.51987 12.712 8.97427C12.2575 9.42866 11.6493 9.69636 11.0072 9.72462C10.3651 9.75288 9.73571 9.53965 9.24302 9.12694L8.0048 10.3652L6.76658 9.12694C6.27395 9.5401 5.64441 9.75371 5.00207 9.72565C4.35973 9.69759 3.75121 9.4299 3.29649 8.97535C2.84176 8.52081 2.57383 7.91239 2.54552 7.27006C2.51721 6.62774 2.73057 5.99811 3.14355 5.50532L2.01287 4.375C1.34851 5.46799 0.998066 6.72287 1.00001 8.00193ZM8.00445 1.91059C9.6442 1.91059 11.1662 2.54279 12.3078 3.69469L8.0048 7.99627L3.7011 3.69469C4.26349 3.12578 4.93384 2.67492 5.67281 2.36856C6.41178 2.06219 7.20449 1.90649 8.00445 1.91059Z" fill-opacity="0.88" fill="#FFFFFF"></path></svg>